<svg width="455" height="455" viewBox="0 0 455 455" fill="none" xmlns="http://www.w3.org/2000/svg">
<path d="M411.554 292.74V118.13C411.554 111.393 410.111 104.944 407.493 99.0963C424.25 106.568 435.561 123.172 435.561 142.036V316.646C435.561 342.98 413.993 363.785 387.549 363.785H207.502L116.034 421.23C99.4594 433.174 99.4594 424.718 99.4594 415.034V392.656L183.495 339.879H363.542C389.986 339.879 411.554 319.074 411.554 292.74Z" fill="black" style="fill:black;fill-opacity:1;"/>
<path d="M75.4523 357.379V339.879C68.3643 339.879 61.6267 338.336 55.5608 335.583C59.6976 344.694 66.7077 352.352 75.4523 357.379Z" fill="black" style="fill:black;fill-opacity:1;"/>
<path d="M411.561 118.208V292.714C411.561 319.031 390 339.824 363.563 339.824H183.57L92.1288 397.235C75.5594 409.171 75.5594 400.72 75.5594 391.042V339.824C49.1229 339.824 27.5613 318.359 27.5613 292.714L27.5613 118.208C27.5613 91.8902 49.1229 71.0973 75.5594 71.0973H363.548C390.637 71.0973 411.561 92.5622 411.561 118.208Z" fill="#FF6200" style="fill:#FF6200;fill:color(display-p3 1.0000 0.3843 0.0000);fill-opacity:1;"/>
<path fill-rule="evenodd" clip-rule="evenodd" d="M92.8398 204.105C95.9693 204.105 101.185 198.462 101.185 190.591C101.185 180.064 91.0379 170.723 77.1922 170.723H52.0613V247.159H84.6841C99.9997 247.159 110.147 235.921 110.147 223.83C110.147 212.308 100.995 204.105 92.8398 204.105ZM84.1624 194.241C84.1624 198.177 80.8432 200.358 76.4334 200.358H71.5969V188.362H76.5757C80.938 188.362 84.1624 190.543 84.1624 194.241ZM71.597 228.714H81.602C86.2488 228.714 90.706 226.438 90.706 221.412C90.706 216.954 87.4817 214.252 81.7442 214.252L71.597 214.204V228.714Z" fill="white" style="fill:white;fill-opacity:1;"/>
<path fill-rule="evenodd" clip-rule="evenodd" d="M192.415 247.159H170.177L166.336 238.245H137.791L133.903 247.159H111.712L147.227 169.775H156.853L192.415 247.159ZM152.063 205.29L144.192 223.404H159.887L152.063 205.29Z" fill="white" style="fill:white;fill-opacity:1;"/>
<path fill-rule="evenodd" clip-rule="evenodd" d="M244.147 216.48L264.631 247.159H240.875L220.438 213.967V247.159H200.144L200.049 170.723H229.068C245.569 170.723 257.376 181.866 257.376 195.569C257.376 205.1 251.639 213.066 244.147 216.48ZM228.642 188.979H220.344V204.295L228.642 204.342C232.957 204.389 236.892 201.355 236.892 196.66C236.892 191.919 232.909 188.979 228.642 188.979Z" fill="white" style="fill:white;fill-opacity:1;"/>
<path fill-rule="evenodd" clip-rule="evenodd" d="M335.33 241.753C340.545 242.986 346.662 243.745 352.826 243.887L345.903 261.953C332.058 260.957 323.191 255.267 316.268 248.771C314.371 249.008 312.475 249.103 310.531 249.103C286.775 249.103 268.614 231.796 268.614 209.036C268.614 186.086 286.822 168.684 310.578 168.684C334.334 168.684 352.542 186.086 352.542 209.036C352.542 222.834 345.856 234.594 335.33 241.753ZM310.578 187.983C298.439 187.983 289.145 197.087 289.145 208.894C289.145 220.653 298.439 229.71 310.578 229.71C322.716 229.71 332.01 220.653 332.01 208.894C332.01 197.087 322.716 187.983 310.578 187.983Z" fill="white" style="fill:white;fill-opacity:1;"/>
<path fill-rule="evenodd" clip-rule="evenodd" d="M383.6 220.463H366.767L363.353 170.723H386.872L383.6 220.463ZM387.061 238.908C387.061 245.025 381.656 249.862 375.207 249.862C368.711 249.862 363.353 244.883 363.353 238.671C363.353 232.602 368.758 227.718 375.112 227.718C381.656 227.718 387.061 232.887 387.061 238.908Z" fill="white" style="fill:white;fill-opacity:1;"/>
</svg>
